<svg width="500" height="290" viewBox="0 0 500 290" fill="none" xmlns="http://www.w3.org/2000/svg">
<path d="M39.2577 130.595L263.742 1.00001L319.92 33.4316L319.92 77.9005L246.523 120.391L264.427 130.727L321.176 97.9653L321.176 66.1929L348.922 50.1748L404.187 82.0791L403.902 114.28L431.934 98.0971L460.251 114.445L460.251 159.495L404.187 192.348L375.87 175.922L319.92 208.775L264.427 176.042L246.523 185.781L263.285 195.458L263.285 240.551L207.792 273.135L39.2577 175.922L39.2577 130.595Z" fill="#FFB800"/>
<path d="M319.92 33.4316L263.742 1.00002L39.2577 130.595M319.92 33.4316L151.271 130.792L179.246 146.942L235.881 114.247L246.523 120.391M319.92 33.4316L319.92 77.9005L246.523 120.391M95.4358 163.026L39.2577 130.595M39.2577 130.595L207.449 227.692M39.2577 130.595L39.2577 175.922L207.792 273.135M264.427 130.727L348.694 82.0791L321.176 66.1929M264.427 130.727L319.92 162.763M264.427 130.727L207.792 163.422L246.523 185.781M264.427 130.727L264.427 176.042M264.427 130.727L246.523 120.391M321.176 66.1929L348.922 50.1748L404.187 82.0791M321.176 66.1929L321.176 98.6358M404.187 82.0791L348.123 114.445L375.87 130.463M404.187 82.0791L403.902 114.28M375.87 130.463L404.187 146.81M375.87 130.463L319.92 162.763M375.87 130.463L375.87 175.922M375.87 130.463L403.902 114.28M460.251 114.445L431.934 98.0971L403.902 114.28M460.251 114.445L404.187 146.81M460.251 114.445L460.251 159.495L404.187 192.348M404.187 146.81L404.187 192.348M319.92 162.763L319.92 208.775M263.285 195.458L207.449 227.692M263.285 195.458L263.285 240.551L207.792 273.135M263.285 195.458L246.523 185.781M207.449 227.692L207.792 273.135M264.427 176.042L246.523 185.781M264.427 176.042L319.92 208.775M319.92 208.775L375.87 175.922M375.87 175.922L404.187 192.348" stroke="#1A0C6D" stroke-width="2"/>
</svg>
