<svg width="235" height="146" viewBox="0 0 235 146" fill="none" xmlns="http://www.w3.org/2000/svg">
<path d="M1.05645 143.294C0.540114 143.151 0.244864 142.591 0.397028 142.043L2.87669 133.12C3.02885 132.573 3.5708 132.245 4.08716 132.388C4.6035 132.531 4.89875 133.091 4.74658 133.638L2.54245 141.57L10.022 143.641C10.5383 143.784 10.8336 144.344 10.6814 144.891C10.5292 145.439 9.98729 145.767 9.47095 145.624L1.05645 143.294ZM0.865685 141.418L2.58916 140.375L3.52174 142.143L1.79826 143.186L0.865685 141.418ZM7.75957 137.246L11.2065 135.16L12.1391 136.929L8.69212 139.015L7.75957 137.246ZM16.3769 132.031L19.8238 129.945L20.7564 131.714L17.3095 133.8L16.3769 132.031ZM24.9942 126.816L28.4412 124.731L29.3737 126.499L25.9268 128.585L24.9942 126.816ZM33.6116 121.602L37.0585 119.516L37.9911 121.284L34.5441 123.37L33.6116 121.602ZM42.2289 116.387L45.6758 114.301L46.6084 116.069L43.1615 118.155L42.2289 116.387ZM50.8462 111.172L54.2932 109.086L55.2257 110.854L51.7788 112.94L50.8462 111.172ZM59.4636 105.957L62.9105 103.871L63.8431 105.639L60.3961 107.725L59.4636 105.957ZM68.0809 100.742L71.5278 98.656L72.4604 100.424L69.0135 102.51L68.0809 100.742ZM76.6983 95.5271L80.1452 93.4411L81.0778 95.2093L77.6308 97.2953L76.6983 95.5271ZM85.3156 90.3122L88.7625 88.2262L89.6951 89.9944L86.2482 92.0804L85.3156 90.3122ZM93.9329 85.0973L97.3799 83.0113L98.3124 84.7795L94.8655 86.8655L93.9329 85.0973ZM102.55 79.8824L105.997 77.7964L106.93 79.5646L103.483 81.6506L102.55 79.8824ZM111.168 74.6675L114.615 72.5815L115.547 74.3497L112.1 76.4357L111.168 74.6675ZM119.785 69.4526L123.232 67.3666L124.164 69.1348L120.718 71.2208L119.785 69.4526ZM128.402 64.2377L131.849 62.1517L132.782 63.9199L129.335 66.0059L128.402 64.2377ZM137.02 59.0228L140.467 56.9368L141.399 58.705L137.952 60.791L137.02 59.0228ZM145.637 53.8079L149.084 51.7219L150.016 53.4901L146.57 55.5761L145.637 53.8079ZM154.254 48.5929L157.701 46.507L158.634 48.2752L155.187 50.3612L154.254 48.5929ZM162.872 43.3781L166.319 41.2921L167.251 43.0603L163.804 45.1463L162.872 43.3781ZM171.489 38.1631L174.936 36.0772L175.868 37.8454L172.422 39.9314L171.489 38.1631ZM180.106 32.9482L183.553 30.8623L184.486 32.6305L181.039 34.7165L180.106 32.9482ZM188.724 27.7333L192.171 25.6474L193.103 27.4156L189.656 29.5016L188.724 27.7333ZM197.341 22.5184L200.788 20.4325L201.72 22.2007L198.274 24.2867L197.341 22.5184ZM205.958 17.3035L209.405 15.2176L210.338 16.9858L206.891 19.0718L205.958 17.3035ZM214.576 12.0886L218.023 10.0027L218.955 11.7709L215.508 13.8569L214.576 12.0886ZM223.193 6.87375L226.64 4.78777L227.573 6.55602L224.126 8.642L223.193 6.87375ZM231.81 1.65884L233.534 0.615876L234.466 2.38412L232.743 3.42709L231.81 1.65884Z" fill="#1A0C6D"/>
</svg>
