<svg width="16" height="281" viewBox="0 0 16 281" fill="none" xmlns="http://www.w3.org/2000/svg">
<path d="M7.29289 280.207C7.68342 280.598 8.31658 280.598 8.70711 280.207L15.0711 273.843C15.4616 273.453 15.4616 272.819 15.0711 272.429C14.6805 272.038 14.0474 272.038 13.6569 272.429L8 278.086L2.34315 272.429C1.95262 272.038 1.31946 272.038 0.928932 272.429C0.538408 272.819 0.538408 273.453 0.928932 273.843L7.29289 280.207ZM7 0V1.99643H9V0H7ZM7 7.98571V11.9786H9V7.98571H7ZM7 17.9679V21.9607H9V17.9679H7ZM7 27.95V31.9429H9V27.95H7ZM7 37.9321V41.925H9V37.9321H7ZM7 47.9143V51.9071H9V47.9143H7ZM7 57.8964V61.8893H9V57.8964H7ZM7 67.8786V71.8714H9V67.8786H7ZM7 77.8607V81.8536H9V77.8607H7ZM7 87.8429V91.8357H9V87.8429H7ZM7 97.825V101.818H9V97.825H7ZM7 107.807V111.8H9V107.807H7ZM7 117.789V121.782H9V117.789H7ZM7 127.771V131.764H9V127.771H7ZM7 137.754V141.746H9V137.754H7ZM7 147.736V151.729H9V147.736H7ZM7 157.718V161.711H9V157.718H7ZM7 167.7V171.693H9V167.7H7ZM7 177.682V181.675H9V177.682H7ZM7 187.664V191.657H9V187.664H7ZM7 197.646V201.639H9V197.646H7ZM7 207.629V211.621H9V207.629H7ZM7 217.611V221.604H9V217.611H7ZM7 227.593V231.586H9V227.593H7ZM7 237.575V241.568H9V237.575H7ZM7 247.557V251.55H9V247.557H7ZM7 257.539V261.532H9V257.539H7ZM7 267.522V271.514H9V267.522H7ZM7 277.504V279.5H9V277.504H7Z" fill="#1A0C6D"/>
</svg>
