<svg width="500" height="290" viewBox="0 0 500 290" fill="none" xmlns="http://www.w3.org/2000/svg">
<path d="M95.436 163.026L39.2579 130.595L263.742 1.00006L319.92 33.4317L319.92 77.9006L246.524 120.391L264.427 130.727L321.176 97.9653L321.176 66.1929L348.923 50.1748L404.187 82.0791L403.902 114.28L431.934 98.0972L460.251 114.445L404.187 146.811L375.87 130.463L319.92 162.763L264.427 130.727L207.792 163.422L246.524 185.781L263.285 195.458L207.45 227.692L95.436 163.026Z" fill="#EAF2FF"/>
<path d="M319.92 33.4317L263.742 1.00006L39.2579 130.595M319.92 33.4317L151.272 130.792L179.246 146.942L235.881 114.247L246.524 120.391M319.92 33.4317L319.92 77.9006L246.524 120.391M95.436 163.026L39.2579 130.595M39.2579 130.595L207.45 227.692L263.285 195.458L246.524 185.781L207.792 163.422L264.427 130.727M264.427 130.727L348.694 82.0791L321.176 66.1929M264.427 130.727L319.92 162.763L375.87 130.463M264.427 130.727L246.524 120.391M321.176 66.1929L348.923 50.1748L404.187 82.0791M321.176 66.1929L321.176 97.9653M404.187 82.0791L348.123 114.445L375.87 130.463M404.187 82.0791L403.902 114.28M375.87 130.463L404.187 146.811L460.251 114.445M375.87 130.463L403.902 114.28M460.251 114.445L431.934 98.0972L403.902 114.28M460.251 114.445L460.251 159.495" stroke="#1A0C6D" stroke-width="2"/>
<path d="M348.694 82.079L321.176 97.9652L321.176 66.1928L348.694 82.079Z" fill="#95BFFF"/>
<path d="M264.427 130.726L348.694 82.079L321.176 66.1928L321.176 97.9652" stroke="#1A0C6D" stroke-width="2"/>
<path d="M375.87 130.463L404.187 146.81L404.187 192.348L375.87 175.922L375.87 130.463Z" fill="#95BFFF"/>
<path d="M39.2576 130.595L95.4357 163.026L207.449 227.692L207.792 273.135L39.2576 175.921L39.2576 130.595Z" fill="#95BFFF"/>
<path d="M264.919 132.233L319.073 163.496L319.073 208.398L264.919 176.455L264.919 132.233Z" fill="#95BFFF"/>
<path d="M319.92 33.4316L263.742 1.00002L39.2579 130.595M319.92 33.4316L151.272 130.792L179.246 146.942L235.881 114.247L246.524 120.391M319.92 33.4316L319.92 77.9005L246.524 120.391M95.436 163.026L39.2579 130.595M39.2579 130.595L207.45 227.692M39.2579 130.595L39.2579 175.922L207.792 273.135M264.427 130.727L348.694 82.0791L321.176 66.1929M264.427 130.727L319.92 162.763M264.427 130.727L207.792 163.422L246.524 185.781M264.427 130.727L264.427 176.042M264.427 130.727L246.524 120.391M321.176 66.1929L348.923 50.1748L404.187 82.0791M321.176 66.1929L321.176 97.9653M404.187 82.0791L348.123 114.445L375.87 130.463M404.187 82.0791L403.902 114.28M375.87 130.463L404.187 146.81M375.87 130.463L319.92 162.763M375.87 130.463L375.87 175.922M375.87 130.463L403.902 114.28M460.251 114.445L431.934 98.0971L403.902 114.28M460.251 114.445L404.187 146.81M460.251 114.445L460.251 159.495L404.187 192.348M404.187 146.81L404.187 192.348M319.92 162.763L319.92 208.775M263.285 195.458L207.45 227.692M263.285 195.458L263.285 240.551L207.792 273.135M263.285 195.458L246.524 185.781M207.45 227.692L207.792 273.135M264.427 176.042L246.524 185.781M264.427 176.042L319.92 208.775M319.92 208.775L375.87 175.922M375.87 175.922L404.187 192.348" stroke="#1A0C6D" stroke-width="2"/>
<path d="M151.272 130.792L319.92 33.4316L319.92 77.9005L246.524 120.391L235.881 114.247L179.246 146.942L151.272 130.792Z" fill="#1A0C6D"/>
<path d="M207.792 163.422L264.427 130.726L264.427 176.042L246.523 185.781L207.792 163.422Z" fill="#1A0C6D"/>
<path d="M235.881 114.247L246.523 120.391L264.427 130.726M264.427 130.726L207.792 163.422L246.523 185.781L264.427 176.042L264.427 130.726Z" stroke="#1A0C6D" stroke-width="2"/>
<path d="M348.123 114.445L404.187 82.079L403.902 114.28L375.87 130.463L348.123 114.445Z" fill="#1A0C6D"/>
<path d="M404.187 146.81L460.251 114.445L460.251 159.495L404.187 192.348L404.187 146.81Z" fill="#1A0C6D"/>
<path d="M319.501 163.163L375.565 130.797L375.565 175.847L319.501 208.701L319.501 163.163Z" fill="#1A0C6D"/>
<path d="M208.015 227.792L264.079 195.426L264.079 240.477L208.015 273.33L208.015 227.792Z" fill="#1A0C6D"/>
</svg>
