<svg width="120" height="76" viewBox="0 0 120 76" fill="none" xmlns="http://www.w3.org/2000/svg">
<path d="M1.33599 72.907C0.820138 72.7613 0.527758 72.2003 0.682946 71.6538L3.21175 62.7484C3.36693 62.2019 3.91091 61.8769 4.42676 62.0226C4.94262 62.1682 5.235 62.7293 5.07982 63.2758L2.83199 71.1917L10.3043 73.3013C10.8201 73.4469 11.1125 74.008 10.9573 74.5545C10.8021 75.101 10.2582 75.4259 9.74231 75.2803L1.33599 72.907ZM1.15519 71.0313L2.83924 70.0254L3.7628 71.7977L2.07876 72.8036L1.15519 71.0313ZM7.89136 67.0075L11.2595 64.9956L12.183 66.7678L8.81493 68.7798L7.89136 67.0075ZM16.3116 61.9777L19.6797 59.9657L20.6032 61.738L17.2351 63.7499L16.3116 61.9777ZM24.7318 56.9478L28.0999 54.9359L29.0234 56.7082L25.6554 58.7201L24.7318 56.9478ZM33.152 51.918L36.5201 49.9061L37.4437 51.6783L34.0756 53.6903L33.152 51.918ZM41.5722 46.8882L44.9403 44.8762L45.8639 46.6485L42.4958 48.6604L41.5722 46.8882ZM49.9924 41.8583L53.3605 39.8464L54.2841 41.6187L50.916 43.6306L49.9924 41.8583ZM58.4127 36.8285L61.7807 34.8166L62.7043 36.5889L59.3362 38.6008L58.4127 36.8285ZM66.8329 31.7987L70.201 29.7867L71.1245 31.559L67.7564 33.571L66.8329 31.7987ZM75.2531 26.7689L78.6212 24.7569L79.5447 26.5292L76.1766 28.5411L75.2531 26.7689ZM83.6733 21.739L87.0414 19.7271L87.9649 21.4994L84.5969 23.5113L83.6733 21.739ZM92.0935 16.7092L95.4616 14.6973L96.3852 16.4695L93.0171 18.4815L92.0935 16.7092ZM100.514 11.6794L103.882 9.66744L104.805 11.4397L101.437 13.4517L100.514 11.6794ZM108.934 6.64954L112.302 4.63762L113.226 6.4099L109.858 8.42183L108.934 6.64954ZM117.354 1.61972L119.038 0.613738L119.962 2.38602L118.278 3.392L117.354 1.61972Z" fill="#1A0C6D"/>
</svg>
