<svg width="187" height="62" viewBox="0 0 187 62" fill="none" xmlns="http://www.w3.org/2000/svg">
<path d="M0.783488 24.5886V0H9.82922C12.1322 0 13.8891 0.622348 15.1 1.86704C16.3108 3.11174 16.9162 4.84962 16.9162 7.08068C16.9162 9.31174 16.3108 11.0496 15.1 12.2943C13.8891 13.539 12.1322 14.1614 9.82922 14.1614H3.77499V24.5886H0.783488ZM3.77499 11.5898H9.75799C11.0163 11.5898 11.9897 11.2845 12.6783 10.6739C13.3905 10.0398 13.7467 9.14735 13.7467 7.99659V6.16477C13.7467 5.01401 13.3905 4.13333 12.6783 3.52273C11.9897 2.88864 11.0163 2.57159 9.75799 2.57159H3.77499V11.5898Z" fill="#1A0C6D"/>
<path d="M36.0622 24.5886L33.961 17.5784H25.2358L23.1346 24.5886H20.0363L27.6575 0H31.6105L39.2317 24.5886H36.0622ZM29.7587 3.13523H29.4381L25.948 15.0068H33.2487L29.7587 3.13523Z" fill="#1A0C6D"/>
<path d="M46.4829 24.5886H43.4914V0H52.5371C54.8401 0 56.597 0.622348 57.8079 1.86704C59.0187 3.11174 59.6241 4.84962 59.6241 7.08068C59.6241 9.07689 59.1018 10.6739 58.0572 11.8716C57.0125 13.0693 55.493 13.7621 53.4987 13.95L59.8378 24.5886H56.4902L50.436 14.0909H46.4829V24.5886ZM52.4659 11.5898C53.7242 11.5898 54.6977 11.2845 55.3862 10.6739C56.0984 10.0398 56.4546 9.14735 56.4546 7.99659V6.16477C56.4546 5.01401 56.0984 4.13333 55.3862 3.52273C54.6977 2.88864 53.7242 2.57159 52.4659 2.57159H46.4829V11.5898H52.4659Z" fill="#1A0C6D"/>
<path d="M73.8199 2.57159V24.5886H70.8284V2.57159H62.5305V0H82.1177V2.57159H73.8199Z" fill="#1A0C6D"/>
<path d="M88.7991 3.76932H88.5498V24.5886H85.8432V0H90.0811L98.5571 20.608H98.8064V0H101.513V24.5886H97.275L88.7991 3.76932Z" fill="#1A0C6D"/>
<path d="M107.553 24.5886V0H122.867V2.57159H110.545V10.85H122.44V13.4216H110.545V22.017H122.867V24.5886H107.553Z" fill="#1A0C6D"/>
<path d="M131.899 24.5886H128.907V0H137.953C140.256 0 142.013 0.622348 143.224 1.86704C144.435 3.11174 145.04 4.84962 145.04 7.08068C145.04 9.07689 144.518 10.6739 143.473 11.8716C142.428 13.0693 140.909 13.7621 138.915 13.95L145.254 24.5886H141.906L135.852 14.0909H131.899V24.5886ZM137.882 11.5898C139.14 11.5898 140.113 11.2845 140.802 10.6739C141.514 10.0398 141.87 9.14735 141.87 7.99659V6.16477C141.87 5.01401 141.514 4.13333 140.802 3.52273C140.113 2.88864 139.14 2.57159 137.882 2.57159H131.899V11.5898H137.882Z" fill="#1A0C6D"/>
<path d="M13.7823 41.4625H13.4974L8.26224 54.1091L3.02711 41.4625H2.74221V61.5773H0V36.9886H3.84622L8.22663 47.8386H8.44031L12.8207 36.9886H16.5245V61.5773H13.7823V41.4625Z" fill="#1A0C6D"/>
<path d="M36.0622 61.5773L33.961 54.567H25.2358L23.1346 61.5773H20.0363L27.6575 36.9886H31.6105L39.2317 61.5773H36.0622ZM29.7587 40.1239H29.4381L25.948 51.9955H33.2487L29.7587 40.1239Z" fill="#1A0C6D"/>
<path d="M46.4829 61.5773H43.4914V36.9886H52.5371C54.8401 36.9886 56.597 37.611 57.8079 38.8557C59.0187 40.1004 59.6241 41.8383 59.6241 44.0693C59.6241 46.0655 59.1018 47.6625 58.0572 48.8602C57.0125 50.058 55.493 50.7508 53.4987 50.9386L59.8378 61.5773H56.4902L50.436 51.0795H46.4829V61.5773ZM52.4659 48.5784C53.7242 48.5784 54.6977 48.2731 55.3862 47.6625C56.0984 47.0284 56.4546 46.136 56.4546 44.9852V43.1534C56.4546 42.0027 56.0984 41.122 55.3862 40.5114C54.6977 39.8773 53.7242 39.5602 52.4659 39.5602H46.4829V48.5784H52.4659Z" fill="#1A0C6D"/>
<path d="M71.2201 49.5295L67.6588 53.6864V61.5773H64.6673V36.9886H67.6588V49.8114H67.7656L71.042 45.725L78.3783 36.9886H81.9753L73.2501 47.3455L82.2246 61.5773H78.7345L71.2201 49.5295Z" fill="#1A0C6D"/>
<path d="M86.1993 61.5773V36.9886H101.513V39.5602H89.1908V47.8386H101.086V50.4102H89.1908V59.0057H101.513V61.5773H86.1993Z" fill="#1A0C6D"/>
<path d="M116.528 39.5602V61.5773H113.536V39.5602H105.238V36.9886H124.826V39.5602H116.528Z" fill="#1A0C6D"/>
<path d="M128.694 61.5773V59.217H134.89V39.3489H128.694V36.9886H144.078V39.3489H137.882V59.217H144.078V61.5773H128.694Z" fill="#1A0C6D"/>
<path d="M152.861 40.758H152.612V61.5773H149.905V36.9886H154.143L162.619 57.5966H162.868V36.9886H165.575V61.5773H161.337L152.861 40.758Z" fill="#1A0C6D"/>
<path d="M184.222 58.3011H184.044C183.83 58.7708 183.581 59.2288 183.296 59.675C183.011 60.1212 182.643 60.5205 182.192 60.8727C181.765 61.2015 181.243 61.4716 180.625 61.683C180.008 61.8943 179.272 62 178.417 62C175.711 62 173.693 60.9197 172.363 58.7591C171.057 56.5985 170.404 53.4985 170.404 49.4591C170.404 45.2318 171.128 42.0261 172.577 39.842C174.025 37.658 176.257 36.5659 179.272 36.5659C180.435 36.5659 181.444 36.7186 182.299 37.0239C183.154 37.3292 183.878 37.7402 184.471 38.2568C185.089 38.7735 185.599 39.3606 186.003 40.0182C186.406 40.6523 186.739 41.2981 187 41.9557L184.436 43.1182C184.222 42.578 183.973 42.0731 183.688 41.6034C183.427 41.1102 183.094 40.6875 182.691 40.3352C182.311 39.9595 181.848 39.6659 181.302 39.4545C180.756 39.2432 180.115 39.1375 179.379 39.1375C177.384 39.1375 175.912 39.8773 174.963 41.3568C174.037 42.8364 173.574 44.8091 173.574 47.275V51.0795C173.574 52.3242 173.669 53.4633 173.859 54.4966C174.049 55.5064 174.357 56.3871 174.785 57.1386C175.236 57.8901 175.806 58.4773 176.494 58.9C177.206 59.2992 178.073 59.4989 179.094 59.4989C180.708 59.4989 181.967 59.0174 182.869 58.0545C183.771 57.0917 184.222 55.847 184.222 54.3205V51.7841H178.987V49.4239H187V61.5773H184.222V58.3011Z" fill="#1A0C6D"/>
</svg>
