<svg width="16" height="513" viewBox="0 0 16 513" fill="none" xmlns="http://www.w3.org/2000/svg">
<path d="M7.29566 512.21C7.68771 512.599 8.32087 512.596 8.70987 512.204L15.0489 505.816C15.4379 505.423 15.4354 504.79 15.0434 504.401C14.6513 504.012 14.0182 504.015 13.6292 504.407L7.99447 510.086L2.31554 504.451C1.92349 504.062 1.29033 504.065 0.901338 504.457C0.512344 504.849 0.514819 505.482 0.906868 505.871L7.29566 512.21ZM5.00001 0.00391004L5.00785 2.00979L7.00784 2.00197L6.99999 -0.00391004L5.00001 0.00391004ZM5.03138 8.02744L5.04707 12.0392L7.04705 12.0314L7.03136 8.01962L5.03138 8.02744ZM5.0706 18.0569L5.08628 22.0686L7.08627 22.0608L7.07058 18.049L5.0706 18.0569ZM5.10981 28.0863L5.1255 32.098L7.12548 32.0902L7.1098 28.0784L5.10981 28.0863ZM5.14903 38.1157L5.16471 42.1274L7.1647 42.1196L7.14901 38.1079L5.14903 38.1157ZM5.18824 48.1451L5.20393 52.1569L7.20391 52.149L7.18823 48.1373L5.18824 48.1451ZM5.22746 58.1745L5.24314 62.1863L7.24313 62.1784L7.22744 58.1667L5.22746 58.1745ZM5.26667 68.2039L5.28236 72.2157L7.28235 72.2079L7.26666 68.1961L5.26667 68.2039ZM5.30589 78.2333L5.32158 82.2451L7.32156 82.2373L7.30587 78.2255L5.30589 78.2333ZM5.34511 88.2627L5.36079 92.2745L7.36078 92.2667L7.34509 88.2549L5.34511 88.2627ZM5.38432 98.2921L5.40001 102.304L7.39999 102.296L7.38431 98.2843L5.38432 98.2921ZM5.42354 108.322L5.43922 112.333L7.43921 112.326L7.42352 108.314L5.42354 108.322ZM5.46275 118.351L5.47844 122.363L7.47842 122.355L7.46274 118.343L5.46275 118.351ZM5.50197 128.38L5.51765 132.392L7.51764 132.384L7.50195 128.373L5.50197 128.38ZM5.54118 138.41L5.55687 142.422L7.55686 142.414L7.54117 138.402L5.54118 138.41ZM5.5804 148.439L5.59609 152.451L7.59607 152.443L7.58038 148.431L5.5804 148.439ZM5.61962 158.469L5.6353 162.48L7.63529 162.473L7.6196 158.461L5.61962 158.469ZM5.65883 168.498L5.67452 172.51L7.6745 172.502L7.65882 168.49L5.65883 168.498ZM5.69805 178.527L5.71373 182.539L7.71372 182.531L7.69803 178.52L5.69805 178.527ZM5.73726 188.557L5.75295 192.569L7.75293 192.561L7.73725 188.549L5.73726 188.557ZM5.77648 198.586L5.79216 202.598L7.79215 202.59L7.77646 198.578L5.77648 198.586ZM5.81569 208.616L5.83138 212.628L7.83137 212.62L7.81568 208.608L5.81569 208.616ZM5.85491 218.645L5.8706 222.657L7.87058 222.649L7.85489 218.637L5.85491 218.645ZM5.89413 228.675L5.90981 232.686L7.9098 232.679L7.89411 228.667L5.89413 228.675ZM5.93334 238.704L5.94903 242.716L7.94901 242.708L7.93333 238.696L5.93334 238.704ZM5.97256 248.733L5.98824 252.745L7.98823 252.737L7.97254 248.726L5.97256 248.733ZM6.01177 258.763L6.02746 262.775L8.02744 262.767L8.01176 258.755L6.01177 258.763ZM6.05099 268.792L6.06667 272.804L8.06666 272.796L8.05097 268.784L6.05099 268.792ZM6.0902 278.822L6.10589 282.833L8.10588 282.826L8.09019 278.814L6.0902 278.822ZM6.12942 288.851L6.14511 292.863L8.14509 292.855L8.1294 288.843L6.12942 288.851ZM6.16864 298.881L6.18432 302.892L8.18431 302.885L8.16862 298.873L6.16864 298.881ZM6.20785 308.91L6.22354 312.922L8.22352 312.914L8.20784 308.902L6.20785 308.91ZM6.24707 318.939L6.26275 322.951L8.26274 322.943L8.24705 318.932L6.24707 318.939ZM6.28628 328.969L6.30197 332.981L8.30195 332.973L8.28627 328.961L6.28628 328.969ZM6.3255 338.998L6.34119 343.01L8.34117 343.002L8.32548 338.99L6.3255 338.998ZM6.36471 349.028L6.3804 353.04L8.38039 353.032L8.3647 349.02L6.36471 349.028ZM6.40393 359.057L6.41962 363.069L8.4196 363.061L8.40392 359.049L6.40393 359.057ZM6.44315 369.087L6.45883 373.098L8.45882 373.091L8.44313 369.079L6.44315 369.087ZM6.48236 379.116L6.49805 383.128L8.49803 383.12L8.48235 379.108L6.48236 379.116ZM6.52158 389.145L6.53726 393.157L8.53725 393.149L8.52156 389.138L6.52158 389.145ZM6.56079 399.175L6.57648 403.187L8.57646 403.179L8.56078 399.167L6.56079 399.175ZM6.60001 409.204L6.6157 413.216L8.61568 413.208L8.59999 409.197L6.60001 409.204ZM6.63923 419.234L6.65491 423.246L8.6549 423.238L8.63921 419.226L6.63923 419.234ZM6.67844 429.263L6.69413 433.275L8.69411 433.267L8.67843 429.255L6.67844 429.263ZM6.71766 439.293L6.73334 443.304L8.73333 443.297L8.71764 439.285L6.71766 439.293ZM6.75687 449.322L6.77256 453.334L8.77254 453.326L8.75686 449.314L6.75687 449.322ZM6.79609 459.352L6.81177 463.363L8.81176 463.355L8.79607 459.344L6.79609 459.352ZM6.8353 469.381L6.85099 473.393L8.85098 473.385L8.83529 469.373L6.8353 469.381ZM6.87452 479.41L6.89021 483.422L8.89019 483.414L8.8745 479.403L6.87452 479.41ZM6.91374 489.44L6.92942 493.452L8.92941 493.444L8.91372 489.432L6.91374 489.44ZM6.95295 499.469L6.96864 503.481L8.96862 503.473L8.95294 499.461L6.95295 499.469ZM6.99217 509.499L7.00001 511.504L8.99999 511.496L8.99215 509.491L6.99217 509.499Z" fill="#1A0C6D"/>
</svg>
