<svg width="385" height="229" viewBox="0 0 385 229" fill="none" xmlns="http://www.w3.org/2000/svg">
<path d="M0.709923 226.286C0.195853 226.135 -0.0910919 225.57 0.0690472 225.025L2.67853 216.14C2.83864 215.595 3.38522 215.276 3.89929 215.427C4.41339 215.578 4.70033 216.143 4.54019 216.688L2.22066 224.585L9.6673 226.776C10.1814 226.927 10.4683 227.492 10.3082 228.037C10.1481 228.582 9.60151 228.902 9.08742 228.75L0.709923 226.286ZM384.453 2.39166L382.712 3.40893L381.806 1.6256L383.547 0.608338L384.453 2.39166ZM377.49 6.46073L374.008 8.49526L373.101 6.71194L376.583 4.6774L377.49 6.46073ZM368.785 11.5471L365.303 13.5816L364.397 11.7983L367.879 9.76374L368.785 11.5471ZM360.08 16.6334L356.599 18.6679L355.692 16.8846L359.174 14.8501L360.08 16.6334ZM351.376 21.7197L347.894 23.7543L346.988 21.9709L350.47 19.9364L351.376 21.7197ZM342.671 26.8061L339.19 28.8406L338.283 27.0573L341.765 25.0227L342.671 26.8061ZM333.967 31.8924L330.485 33.9269L329.579 32.1436L333.06 30.1091L333.967 31.8924ZM325.262 36.9787L321.78 39.0133L320.874 37.2299L324.356 35.1954L325.262 36.9787ZM316.558 42.0651L313.076 44.0996L312.17 42.3163L315.651 40.2817L316.558 42.0651ZM307.853 47.1514L304.371 49.1859L303.465 47.4026L306.947 45.3681L307.853 47.1514ZM299.149 52.2377L295.667 54.2722L294.76 52.4889L298.242 50.4544L299.149 52.2377ZM290.444 57.324L286.962 59.3586L286.056 57.5753L289.538 55.5407L290.444 57.324ZM281.74 62.4104L278.258 64.4449L277.351 62.6616L280.833 60.6271L281.74 62.4104ZM273.035 67.4967L269.553 69.5312L268.647 67.7479L272.129 65.7134L273.035 67.4967ZM264.33 72.583L260.849 74.6176L259.942 72.8342L263.424 70.7997L264.33 72.583ZM255.626 77.6694L252.144 79.7039L251.238 77.9206L254.72 75.8861L255.626 77.6694ZM246.921 82.7557L243.439 84.7903L242.533 83.0069L246.015 80.9724L246.921 82.7557ZM238.217 87.8421L234.735 89.8766L233.829 88.0933L237.31 86.0587L238.217 87.8421ZM229.512 92.9284L226.03 94.9629L225.124 93.1796L228.606 91.1451L229.512 92.9284ZM220.808 98.0147L217.326 100.049L216.419 98.2659L219.901 96.2314L220.808 98.0147ZM212.103 103.101L208.621 105.136L207.715 103.352L211.197 101.318L212.103 103.101ZM203.399 108.187L199.917 110.222L199.01 108.439L202.492 106.404L203.399 108.187ZM194.694 113.274L191.212 115.308L190.306 113.525L193.788 111.49L194.694 113.274ZM185.989 118.36L182.508 120.395L181.601 118.611L185.083 116.577L185.989 118.36ZM177.285 123.446L173.803 125.481L172.897 123.698L176.378 121.663L177.285 123.446ZM168.58 128.533L165.098 130.567L164.192 128.784L167.674 126.749L168.58 128.533ZM159.876 133.619L156.394 135.654L155.488 133.87L158.969 131.836L159.876 133.619ZM151.171 138.705L147.689 140.74L146.783 138.957L150.265 136.922L151.171 138.705ZM142.467 143.792L138.985 145.826L138.078 144.043L141.56 142.008L142.467 143.792ZM133.762 148.878L130.28 150.913L129.374 149.129L132.856 147.095L133.762 148.878ZM125.058 153.964L121.576 155.999L120.669 154.216L124.151 152.181L125.058 153.964ZM116.353 159.051L112.871 161.085L111.965 159.302L115.447 157.267L116.353 159.051ZM107.648 164.137L104.167 166.172L103.26 164.388L106.742 162.354L107.648 164.137ZM98.9439 169.223L95.4621 171.258L94.5557 169.475L98.0376 167.44L98.9439 169.223ZM90.2394 174.31L86.7575 176.344L85.8512 174.561L89.333 172.526L90.2394 174.31ZM81.5348 179.396L78.053 181.431L77.1466 179.647L80.6285 177.613L81.5348 179.396ZM72.8303 184.482L69.3484 186.517L68.4421 184.734L71.9239 182.699L72.8303 184.482ZM64.1257 189.569L60.6439 191.603L59.7376 189.82L63.2194 187.785L64.1257 189.569ZM55.4212 194.655L51.9393 196.69L51.033 194.906L54.5148 192.872L55.4212 194.655ZM46.7166 199.741L43.2348 201.776L42.3285 199.993L45.8103 197.958L46.7166 199.741ZM38.0121 204.828L34.5303 206.862L33.6239 205.079L37.1057 203.044L38.0121 204.828ZM29.3075 209.914L25.8257 211.949L24.9194 210.165L28.4012 208.131L29.3075 209.914ZM20.603 215L17.1212 217.035L16.2148 215.252L19.6966 213.217L20.603 215ZM11.8985 220.087L8.41663 222.121L7.51027 220.338L10.9921 218.303L11.8985 220.087ZM3.1939 225.173L1.45304 226.19L0.546712 224.407L2.28754 223.39L3.1939 225.173Z" fill="#1A0C6D"/>
</svg>
