<svg width="16" height="96" viewBox="0 0 16 96" fill="none" xmlns="http://www.w3.org/2000/svg">
<path d="M7.3005 95.2146C7.69517 95.601 8.3283 95.5942 8.71463 95.1995L15.0102 88.7679C15.3965 88.3732 15.3897 87.74 14.995 87.3537C14.6004 86.9674 13.9672 86.9742 13.5809 87.3688L7.98488 93.0859L2.26785 87.4898C1.87317 87.1035 1.24004 87.1103 0.853714 87.505C0.467389 87.8996 0.47416 88.5328 0.868839 88.9191L7.3005 95.2146ZM6.00006 1.01069L6.02228 3.08847L8.02217 3.06708L7.99994 0.989305L6.00006 1.01069ZM6.08895 9.32181L6.13339 13.4774L8.13328 13.456L8.08883 9.30042L6.08895 9.32181ZM6.20006 19.7107L6.2445 23.8662L8.24439 23.8449L8.19994 19.6893L6.20006 19.7107ZM6.31117 30.0996L6.35561 34.2551L8.3555 34.2338L8.31105 30.0782L6.31117 30.0996ZM6.42228 40.4885L6.46672 44.644L8.46661 44.6226L8.42217 40.4671L6.42228 40.4885ZM6.53339 50.8774L6.57783 55.0329L8.57772 55.0115L8.53328 50.856L6.53339 50.8774ZM6.6445 61.2662L6.68895 65.4218L8.68883 65.4004L8.64439 61.2449L6.6445 61.2662ZM6.75561 71.6551L6.80006 75.8107L8.79994 75.7893L8.7555 71.6337L6.75561 71.6551ZM6.86672 82.044L6.91117 86.1996L8.91105 86.1782L8.86661 82.0226L6.86672 82.044ZM6.97783 92.4329L7.00006 94.5107L8.99994 94.4893L8.97772 92.4115L6.97783 92.4329Z" fill="#1A0C6D"/>
</svg>
